<svg width="180" height="180" viewBox="0 0 180 180" fill="none" xmlns="http://www.w3.org/2000/svg">
  <rect width="180" height="180" rx="36" fill="#0A0A0A" />
  <circle cx="90" cy="76" r="44" stroke="#FFFFFF" stroke-width="10" />
  <path d="M90 20V37" stroke="#FFFFFF" stroke-width="10" stroke-linecap="square" />
  <path d="M90 115V132" stroke="#FFFFFF" stroke-width="10" stroke-linecap="square" />
  <path d="M129 76H146" stroke="#FFFFFF" stroke-width="10" stroke-linecap="square" />
  <path d="M34 76H51" stroke="#FFFFFF" stroke-width="10" stroke-linecap="square" />
  <path d="M90 39L101 76L90 113L79 76L90 39Z" fill="#FFFFFF" />
  <circle cx="90" cy="76" r="7" fill="#0A0A0A" />
  <path d="M53 151L64.5 126H74.5L86 151H76.5L74.5 146H64.2L62.2 151H53ZM66.5 139.8H72.2L69.3 132.5L66.5 139.8Z" fill="#FFFFFF" />
  <path d="M90.5 126H100.2L106.1 141L112 126H121.5L111.1 151H100.8L90.5 126Z" fill="#FFFFFF" />
</svg>
